<mxfile host="app.diagrams.net" modified="2023-05-27T22:12:46.512Z" agent="Mozilla/5.0 (Windows NT 10.0; Win64; x64) AppleWebKit/537.36 (KHTML, like Gecko) Chrome/113.0.0.0 Safari/537.36" etag="xQ84AJhpXZf-vzfeJCHa" version="21.3.4" type="device">
  <diagram name="Sayfa -1" id="ntSNYAQ3rDDA_qKAw6Te">
    <mxGraphModel dx="880" dy="427" grid="0" gridSize="10" guides="1" tooltips="1" connect="1" arrows="1" fold="1" page="1" pageScale="1" pageWidth="827" pageHeight="1169" math="0" shadow="0">
      <root>
        <mxCell id="0" />
        <mxCell id="1" parent="0" />
        <mxCell id="BdSUcS08Nrjp9NtQq-AJ-7" style="edgeStyle=orthogonalEdgeStyle;rounded=0;orthogonalLoop=1;jettySize=auto;html=1;exitX=0.5;exitY=1;exitDx=0;exitDy=0;entryX=0.5;entryY=0;entryDx=0;entryDy=0;sketch=1;curveFitting=1;jiggle=2;shadow=1;" parent="1" source="BdSUcS08Nrjp9NtQq-AJ-1" target="BdSUcS08Nrjp9NtQq-AJ-10" edge="1">
          <mxGeometry relative="1" as="geometry">
            <mxPoint x="360" y="110" as="targetPoint" />
          </mxGeometry>
        </mxCell>
        <mxCell id="BdSUcS08Nrjp9NtQq-AJ-1" value="Başla" style="ellipse;whiteSpace=wrap;html=1;sketch=1;curveFitting=1;jiggle=2;shadow=1;" parent="1" vertex="1">
          <mxGeometry x="320" y="50" width="80" height="30" as="geometry" />
        </mxCell>
        <mxCell id="BdSUcS08Nrjp9NtQq-AJ-8" style="edgeStyle=orthogonalEdgeStyle;rounded=0;orthogonalLoop=1;jettySize=auto;html=1;exitX=0.5;exitY=1;exitDx=0;exitDy=0;entryX=0.5;entryY=0;entryDx=0;entryDy=0;sketch=1;curveFitting=1;jiggle=2;shadow=1;" parent="1" source="BdSUcS08Nrjp9NtQq-AJ-10" target="BdSUcS08Nrjp9NtQq-AJ-5" edge="1">
          <mxGeometry relative="1" as="geometry">
            <mxPoint x="360" y="180" as="sourcePoint" />
          </mxGeometry>
        </mxCell>
        <mxCell id="BdSUcS08Nrjp9NtQq-AJ-12" style="edgeStyle=orthogonalEdgeStyle;rounded=0;orthogonalLoop=1;jettySize=auto;html=1;exitX=0.5;exitY=1;exitDx=0;exitDy=0;entryX=0.5;entryY=0;entryDx=0;entryDy=0;sketch=1;curveFitting=1;jiggle=2;shadow=1;" parent="1" source="BdSUcS08Nrjp9NtQq-AJ-5" target="BdSUcS08Nrjp9NtQq-AJ-9" edge="1">
          <mxGeometry relative="1" as="geometry" />
        </mxCell>
        <mxCell id="BdSUcS08Nrjp9NtQq-AJ-24" style="edgeStyle=orthogonalEdgeStyle;rounded=0;orthogonalLoop=1;jettySize=auto;html=1;exitX=0;exitY=0.5;exitDx=0;exitDy=0;entryX=0;entryY=0.5;entryDx=0;entryDy=0;sketch=1;curveFitting=1;jiggle=2;shadow=1;" parent="1" source="BdSUcS08Nrjp9NtQq-AJ-5" target="BdSUcS08Nrjp9NtQq-AJ-13" edge="1">
          <mxGeometry relative="1" as="geometry">
            <mxPoint x="160" y="490" as="targetPoint" />
            <Array as="points">
              <mxPoint x="90" y="230" />
              <mxPoint x="90" y="480" />
            </Array>
          </mxGeometry>
        </mxCell>
        <mxCell id="BdSUcS08Nrjp9NtQq-AJ-5" value="Bitişik hücre var mı?" style="rhombus;whiteSpace=wrap;html=1;sketch=1;curveFitting=1;jiggle=2;shadow=1;" parent="1" vertex="1">
          <mxGeometry x="265" y="200" width="190" height="60" as="geometry" />
        </mxCell>
        <mxCell id="BdSUcS08Nrjp9NtQq-AJ-14" style="edgeStyle=orthogonalEdgeStyle;rounded=0;orthogonalLoop=1;jettySize=auto;html=1;exitX=0.5;exitY=1;exitDx=0;exitDy=0;entryX=0.5;entryY=0;entryDx=0;entryDy=0;sketch=1;curveFitting=1;jiggle=2;shadow=1;" parent="1" source="BdSUcS08Nrjp9NtQq-AJ-9" target="BdSUcS08Nrjp9NtQq-AJ-13" edge="1">
          <mxGeometry relative="1" as="geometry" />
        </mxCell>
        <mxCell id="BdSUcS08Nrjp9NtQq-AJ-9" value="Etiketli her hücre için, etiketlenmemiş bitişik tüm hücreleri etiketliyorum. i+1" style="rounded=0;whiteSpace=wrap;html=1;sketch=1;curveFitting=1;jiggle=2;shadow=1;" parent="1" vertex="1">
          <mxGeometry x="235" y="290" width="250" height="60" as="geometry" />
        </mxCell>
        <mxCell id="BdSUcS08Nrjp9NtQq-AJ-11" value="" style="edgeStyle=orthogonalEdgeStyle;rounded=0;orthogonalLoop=1;jettySize=auto;html=1;exitX=0.5;exitY=1;exitDx=0;exitDy=0;entryX=0.5;entryY=0;entryDx=0;entryDy=0;sketch=1;curveFitting=1;jiggle=2;shadow=1;" parent="1" target="BdSUcS08Nrjp9NtQq-AJ-10" edge="1">
          <mxGeometry relative="1" as="geometry">
            <mxPoint x="360" y="140" as="sourcePoint" />
            <mxPoint x="360" y="200" as="targetPoint" />
          </mxGeometry>
        </mxCell>
        <mxCell id="BdSUcS08Nrjp9NtQq-AJ-10" value="&#xa;&lt;br style=&quot;border-color: var(--border-color); color: rgb(0, 0, 0); font-family: Helvetica; font-size: 12px; font-style: normal; font-variant-ligatures: normal; font-variant-caps: normal; font-weight: 400; letter-spacing: normal; orphans: 2; text-align: center; text-indent: 0px; text-transform: none; widows: 2; word-spacing: 0px; -webkit-text-stroke-width: 0px; background-color: rgb(251, 251, 251); text-decoration-thickness: initial; text-decoration-style: initial; text-decoration-color: initial;&quot;&gt;&lt;span style=&quot;border-color: var(--border-color); color: rgb(0, 0, 0); font-family: Helvetica; font-size: 12px; font-style: normal; font-variant-ligatures: normal; font-variant-caps: normal; font-weight: 400; letter-spacing: normal; orphans: 2; text-align: center; text-indent: 0px; text-transform: none; widows: 2; word-spacing: 0px; -webkit-text-stroke-width: 0px; text-decoration-thickness: initial; text-decoration-style: initial; text-decoration-color: initial; background-color: rgb(251, 251, 251); float: none; display: inline !important;&quot;&gt;hücre=0;&lt;/span&gt;&lt;br style=&quot;border-color: var(--border-color); color: rgb(0, 0, 0); font-family: Helvetica; font-size: 12px; font-style: normal; font-variant-ligatures: normal; font-variant-caps: normal; font-weight: 400; letter-spacing: normal; orphans: 2; text-align: center; text-indent: 0px; text-transform: none; widows: 2; word-spacing: 0px; -webkit-text-stroke-width: 0px; text-decoration-thickness: initial; text-decoration-style: initial; text-decoration-color: initial; background-color: rgb(251, 251, 251);&quot;&gt;&lt;span style=&quot;border-color: var(--border-color); color: rgb(0, 0, 0); font-family: Helvetica; font-size: 12px; font-style: normal; font-variant-ligatures: normal; font-variant-caps: normal; font-weight: 400; letter-spacing: normal; orphans: 2; text-align: center; text-indent: 0px; text-transform: none; widows: 2; word-spacing: 0px; -webkit-text-stroke-width: 0px; text-decoration-thickness: initial; text-decoration-style: initial; text-decoration-color: initial; background-color: rgb(251, 251, 251); float: none; display: inline !important;&quot;&gt;i=0&lt;/span&gt;&#xa;&#xa;" style="rounded=0;whiteSpace=wrap;html=1;sketch=1;curveFitting=1;jiggle=2;shadow=1;" parent="1" vertex="1">
          <mxGeometry x="300" y="120" width="120" height="40" as="geometry" />
        </mxCell>
        <mxCell id="BdSUcS08Nrjp9NtQq-AJ-17" style="edgeStyle=orthogonalEdgeStyle;rounded=0;orthogonalLoop=1;jettySize=auto;html=1;exitX=0.5;exitY=1;exitDx=0;exitDy=0;sketch=1;curveFitting=1;jiggle=2;shadow=1;" parent="1" source="BdSUcS08Nrjp9NtQq-AJ-13" target="BdSUcS08Nrjp9NtQq-AJ-16" edge="1">
          <mxGeometry relative="1" as="geometry" />
        </mxCell>
        <mxCell id="BdSUcS08Nrjp9NtQq-AJ-13" value="Yeni etiketli hücrelerden herhangi biri hedef hücre mi?" style="rhombus;whiteSpace=wrap;html=1;sketch=1;curveFitting=1;jiggle=2;shadow=1;" parent="1" vertex="1">
          <mxGeometry x="168.75" y="430" width="382.5" height="100" as="geometry" />
        </mxCell>
        <mxCell id="BdSUcS08Nrjp9NtQq-AJ-16" value="Bitir" style="ellipse;whiteSpace=wrap;html=1;sketch=1;curveFitting=1;jiggle=2;shadow=1;" parent="1" vertex="1">
          <mxGeometry x="320" y="570" width="80" height="30" as="geometry" />
        </mxCell>
        <mxCell id="BdSUcS08Nrjp9NtQq-AJ-18" value="&lt;b&gt;Hedef bulundu&lt;/b&gt;" style="text;html=1;strokeColor=none;fillColor=none;align=center;verticalAlign=middle;whiteSpace=wrap;rounded=0;sketch=1;curveFitting=1;jiggle=2;shadow=1;" parent="1" vertex="1">
          <mxGeometry x="370" y="530" width="90" height="30" as="geometry" />
        </mxCell>
        <mxCell id="BdSUcS08Nrjp9NtQq-AJ-21" style="edgeStyle=orthogonalEdgeStyle;rounded=0;orthogonalLoop=1;jettySize=auto;html=1;exitX=0.5;exitY=0;exitDx=0;exitDy=0;sketch=1;curveFitting=1;jiggle=2;shadow=1;" parent="1" source="BdSUcS08Nrjp9NtQq-AJ-19" edge="1">
          <mxGeometry relative="1" as="geometry">
            <mxPoint x="360" y="180" as="targetPoint" />
            <Array as="points">
              <mxPoint x="605" y="180" />
            </Array>
          </mxGeometry>
        </mxCell>
        <mxCell id="BdSUcS08Nrjp9NtQq-AJ-19" value="&lt;b&gt;i=i+1&lt;/b&gt;" style="rounded=0;whiteSpace=wrap;html=1;sketch=1;curveFitting=1;jiggle=2;shadow=1;" parent="1" vertex="1">
          <mxGeometry x="560" y="290" width="90" height="30" as="geometry" />
        </mxCell>
        <mxCell id="BdSUcS08Nrjp9NtQq-AJ-20" value="" style="endArrow=none;html=1;rounded=0;entryX=1;entryY=0.5;entryDx=0;entryDy=0;exitX=0.5;exitY=1;exitDx=0;exitDy=0;sketch=1;curveFitting=1;jiggle=2;shadow=1;" parent="1" source="BdSUcS08Nrjp9NtQq-AJ-19" target="BdSUcS08Nrjp9NtQq-AJ-13" edge="1">
          <mxGeometry width="50" height="50" relative="1" as="geometry">
            <mxPoint x="469" y="570" as="sourcePoint" />
            <mxPoint x="519" y="520" as="targetPoint" />
            <Array as="points">
              <mxPoint x="605" y="480" />
            </Array>
          </mxGeometry>
        </mxCell>
        <mxCell id="BdSUcS08Nrjp9NtQq-AJ-22" value="&lt;b&gt;No&lt;/b&gt;" style="text;html=1;strokeColor=none;fillColor=none;align=center;verticalAlign=middle;whiteSpace=wrap;rounded=0;sketch=1;curveFitting=1;jiggle=2;shadow=1;" parent="1" vertex="1">
          <mxGeometry x="540" y="460" width="60" height="30" as="geometry" />
        </mxCell>
        <mxCell id="BdSUcS08Nrjp9NtQq-AJ-23" value="&lt;b&gt;Yes&lt;/b&gt;" style="text;html=1;strokeColor=none;fillColor=none;align=center;verticalAlign=middle;whiteSpace=wrap;rounded=0;sketch=1;curveFitting=1;jiggle=2;shadow=1;" parent="1" vertex="1">
          <mxGeometry x="347" y="260" width="60" height="30" as="geometry" />
        </mxCell>
        <mxCell id="BdSUcS08Nrjp9NtQq-AJ-25" value="&lt;b&gt;No&lt;/b&gt;" style="text;html=1;strokeColor=none;fillColor=none;align=center;verticalAlign=middle;whiteSpace=wrap;rounded=0;sketch=1;curveFitting=1;jiggle=2;shadow=1;" parent="1" vertex="1">
          <mxGeometry x="220" y="210" width="60" height="30" as="geometry" />
        </mxCell>
      </root>
    </mxGraphModel>
  </diagram>
</mxfile>
